<svg id="Grupo_12" data-name="Grupo 12" xmlns="http://www.w3.org/2000/svg" xmlns:xlink="http://www.w3.org/1999/xlink" width="270.703" height="60.199" viewBox="0 0 270.703 60.199">
  <defs>
    <clipPath id="clip-path">
      <rect id="Retângulo_167" data-name="Retângulo 167" width="270.703" height="60.199" fill="none"/>
    </clipPath>
  </defs>
  <g id="Grupo_5887" data-name="Grupo 5887" transform="translate(0 0)" clip-path="url(#clip-path)">
    <path id="Caminho_100" data-name="Caminho 100" d="M.53,5.744,17.1,25.37a21.688,21.688,0,0,0,33.142,0,21.694,21.694,0,0,1,33.147,0,21.688,21.688,0,0,0,33.142,0,21.688,21.688,0,0,1,33.142,0,21.688,21.688,0,0,0,33.142,0,21.688,21.688,0,0,1,33.142,0h.01a21.683,21.683,0,0,0,33.136,0L265.678,5.744" transform="translate(2.248 24.356)" fill="none" stroke="#bb0723" stroke-linecap="round" stroke-linejoin="round" stroke-width="8.06"/>
    <path id="Caminho_101" data-name="Caminho 101" d="M.53.53,17.1,20.156a21.688,21.688,0,0,0,33.142,0,21.694,21.694,0,0,1,33.147,0,21.688,21.688,0,0,0,33.142,0,21.688,21.688,0,0,1,33.142,0,21.688,21.688,0,0,0,33.142,0,21.688,21.688,0,0,1,33.142,0h.01a21.683,21.683,0,0,0,33.136,0L265.678.53" transform="translate(2.248 2.245)" fill="none" stroke="#bb0723" stroke-linecap="round" stroke-linejoin="round" stroke-width="8.06"/>
  </g>
</svg>
