<svg id="Grupo_3" data-name="Grupo 3" xmlns="http://www.w3.org/2000/svg" xmlns:xlink="http://www.w3.org/1999/xlink" width="232.62" height="51.73" viewBox="0 0 232.62 51.73">
  <defs>
    <clipPath id="clip-path">
      <rect id="Retângulo_167" data-name="Retângulo 167" width="232.621" height="51.73" fill="none" stroke="#e8a91c" stroke-width="1"/>
    </clipPath>
  </defs>
  <g id="Grupo_5887" data-name="Grupo 5887" transform="translate(0 0)" clip-path="url(#clip-path)">
    <path id="Caminho_100" data-name="Caminho 100" d="M.53,5.744,14.77,22.609a18.637,18.637,0,0,0,28.479,0,18.642,18.642,0,0,1,28.484,0,18.637,18.637,0,0,0,28.479,0,18.637,18.637,0,0,1,28.479,0,18.637,18.637,0,0,0,28.479,0,18.637,18.637,0,0,1,28.479,0h.009a18.632,18.632,0,0,0,28.475,0L228.377,5.744" transform="translate(1.857 20.121)" fill="none" stroke="#e8a91c" stroke-linecap="round" stroke-linejoin="round" stroke-width="6.06"/>
    <path id="Caminho_101" data-name="Caminho 101" d="M.53.53,14.77,17.4a18.637,18.637,0,0,0,28.479,0,18.642,18.642,0,0,1,28.484,0,18.637,18.637,0,0,0,28.479,0,18.637,18.637,0,0,1,28.479,0,18.637,18.637,0,0,0,28.479,0,18.637,18.637,0,0,1,28.479,0h.009a18.632,18.632,0,0,0,28.475,0L228.377.53" transform="translate(1.857 1.855)" fill="none" stroke="#e8a91c" stroke-linecap="round" stroke-linejoin="round" stroke-width="6.06"/>
  </g>
</svg>
