<svg id="Grupo_9" data-name="Grupo 9" xmlns="http://www.w3.org/2000/svg" xmlns:xlink="http://www.w3.org/1999/xlink" width="227.921" height="50.685" viewBox="0 0 227.921 50.685">
  <defs>
    <clipPath id="clip-path">
      <rect id="Retângulo_167" data-name="Retângulo 167" width="227.921" height="50.685" fill="none"/>
    </clipPath>
  </defs>
  <g id="Grupo_5887" data-name="Grupo 5887" transform="translate(0 0)" clip-path="url(#clip-path)">
    <path id="Caminho_100" data-name="Caminho 100" d="M.53,5.744,14.482,22.268a18.261,18.261,0,0,0,27.9,0,18.265,18.265,0,0,1,27.908,0,18.261,18.261,0,0,0,27.9,0,18.261,18.261,0,0,1,27.9,0,18.261,18.261,0,0,0,27.9,0,18.261,18.261,0,0,1,27.9,0h.009a18.256,18.256,0,0,0,27.9,0L223.774,5.744" transform="translate(1.809 19.599)" fill="none" stroke="#e8a91c" stroke-linecap="round" stroke-linejoin="round" stroke-width="5.06"/>
    <path id="Caminho_101" data-name="Caminho 101" d="M.53.53,14.482,17.054a18.261,18.261,0,0,0,27.9,0,18.265,18.265,0,0,1,27.908,0,18.261,18.261,0,0,0,27.9,0,18.261,18.261,0,0,1,27.9,0,18.261,18.261,0,0,0,27.9,0,18.261,18.261,0,0,1,27.9,0h.009a18.256,18.256,0,0,0,27.9,0L223.774.53" transform="translate(1.809 1.807)" fill="none" stroke="#e8a91c" stroke-linecap="round" stroke-linejoin="round" stroke-width="5.06"/>
  </g>
</svg>
