<svg xmlns="http://www.w3.org/2000/svg" width="48" height="48" viewBox="0 0 48 48">
  <g id="configuracoes" transform="translate(-1.203)">
    <path id="Caminho_683" data-name="Caminho 683" d="M16,8a8,8,0,1,0,8,8A8,8,0,0,0,16,8Zm0,12a4,4,0,1,1,4-4A4,4,0,0,1,16,20Z" transform="translate(9.203 8)" fill="#e8a91c"/>
    <path id="Caminho_684" data-name="Caminho 684" d="M45.862,27.8l-.987-.512a16.407,16.407,0,0,0,0-6.58l.987-.512A5.688,5.688,0,0,0,48.307,12a7.091,7.091,0,0,0-9.114-2.2l-.989.514a20.6,20.6,0,0,0-6.333-3.284V6c0-3.314-2.986-6-6.668-6s-6.668,2.686-6.668,6V7.026A20.59,20.59,0,0,0,12.2,10.318L11.21,9.8A7.091,7.091,0,0,0,2.1,12a5.688,5.688,0,0,0,2.445,8.2l.987.512a16.407,16.407,0,0,0,0,6.58l-.987.512A5.688,5.688,0,0,0,2.1,36a7.091,7.091,0,0,0,9.114,2.2l.989-.514a20.6,20.6,0,0,0,6.335,3.284V42c0,3.314,2.986,6,6.668,6s6.668-2.686,6.668-6V40.974A20.59,20.59,0,0,0,38.2,37.682l.994.516A7.091,7.091,0,0,0,48.309,36a5.688,5.688,0,0,0-2.445-8.2ZM40.2,20.248a12.737,12.737,0,0,1,0,7.5,1.921,1.921,0,0,0,1.031,2.266l2.41,1.252A1.9,1.9,0,0,1,44.453,34a2.363,2.363,0,0,1-3.037.733L39,33.476a2.41,2.41,0,0,0-2.7.33,16,16,0,0,1-7.209,3.75,2.05,2.05,0,0,0-1.669,1.938V42a2.235,2.235,0,0,1-4.446,0V39.5a2.05,2.05,0,0,0-1.669-1.938A16,16,0,0,1,14.1,33.8a2.41,2.41,0,0,0-2.7-.33l-2.41,1.254a2.363,2.363,0,0,1-3.036-.732,1.9,1.9,0,0,1,.814-2.732l2.41-1.252a1.921,1.921,0,0,0,1.031-2.266,12.737,12.737,0,0,1,0-7.5,1.922,1.922,0,0,0-1.034-2.258l-2.41-1.252A1.9,1.9,0,0,1,5.952,14a2.363,2.363,0,0,1,3.037-.733L11.4,14.522a2.41,2.41,0,0,0,2.7-.322,16,16,0,0,1,7.209-3.75A2.049,2.049,0,0,0,22.98,8.5V6a2.235,2.235,0,0,1,4.446,0V8.5a2.05,2.05,0,0,0,1.669,1.938A16,16,0,0,1,36.3,14.2a2.41,2.41,0,0,0,2.7.33l2.41-1.254a2.363,2.363,0,0,1,3.036.732,1.9,1.9,0,0,1-.814,2.732l-2.41,1.252A1.921,1.921,0,0,0,40.2,20.25Z" fill="#e8a91c"/>
  </g>
</svg>
