<svg xmlns="http://www.w3.org/2000/svg" width="48" height="48" viewBox="0 0 48 48">
  <path id="coracao" d="M34.991,1.917A12.672,12.672,0,0,0,24,9.426,12.672,12.672,0,0,0,13,1.917C5.529,2.286-.277,9.453,0,17.958,0,28.3,9.573,39.6,17.6,47.264a9.04,9.04,0,0,0,12.795,0C38.417,39.6,47.985,28.3,47.985,17.958c.282-8.5-5.524-15.672-12.995-16.041ZM27.824,43.783a5.4,5.4,0,0,1-7.657,0C9.895,33.974,4,24.563,4,17.958c-.284-5.993,3.733-11.124,9-11.49,5.263.366,9.281,5.5,9,11.49a2.151,2.151,0,0,0,2,2.275,2.151,2.151,0,0,0,2-2.275c-.284-5.993,3.733-11.124,9-11.49,5.263.366,9.281,5.5,9,11.49,0,6.605-5.892,16.016-16.163,25.816Z" transform="translate(0.005 -1.917)" fill="#e8a91c"/>
</svg>
