<svg xmlns="http://www.w3.org/2000/svg" width="48" height="48" viewBox="0 0 48 48">
  <path id="estrela" d="M47.671,17.967a6.382,6.382,0,0,0-6.135-4.6H32.8L30.143,4.822a6.395,6.395,0,0,0-12.294,0l-2.654,8.546H6.455a6.479,6.479,0,0,0-6.128,4.6,6.792,6.792,0,0,0,2.328,7.448L9.767,30.79l-2.7,8.651a6.686,6.686,0,0,0,2.368,7.465,6.193,6.193,0,0,0,7.6-.039L24,41.573l6.965,5.287a6.289,6.289,0,0,0,7.6.038,6.791,6.791,0,0,0,2.369-7.458l-2.7-8.651,7.121-5.372a6.686,6.686,0,0,0,2.326-7.451Zm-4.687,4.114L34.7,28.34a2.1,2.1,0,0,0-.724,2.306l3.151,10.062a2.582,2.582,0,0,1-.9,2.836,2.391,2.391,0,0,1-2.889-.015l-8.151-6.2a1.949,1.949,0,0,0-2.368,0l-8.151,6.2a2.392,2.392,0,0,1-2.9.027,2.582,2.582,0,0,1-.9-2.847L14.02,30.645A2.1,2.1,0,0,0,13.3,28.34L5.006,22.081a2.583,2.583,0,0,1-.883-2.833A2.463,2.463,0,0,1,6.455,17.5h10.2a2.008,2.008,0,0,0,1.9-1.434l3.1-9.982a2.431,2.431,0,0,1,4.673,0l3.1,9.982a2.008,2.008,0,0,0,1.9,1.434h10.2a2.463,2.463,0,0,1,2.331,1.748,2.583,2.583,0,0,1-.883,2.833Z" transform="translate(-0.008 -0.19)" fill="#e8a91c"/>
</svg>
